<mxfile host="app.diagrams.net" modified="2023-04-05T07:50:53.745Z" agent="Mozilla/5.0 (Windows NT 10.0; Win64; x64) AppleWebKit/537.36 (KHTML, like Gecko) Chrome/111.0.0.0 Safari/537.36" etag="2k-dZ-tXK2iUVZrgTRQv" version="21.1.4" type="github">
  <diagram id="wFE0QG_FPsp0jaGvCLVb" name="Page-1">
    <mxGraphModel dx="910" dy="1412" grid="1" gridSize="10" guides="1" tooltips="1" connect="1" arrows="1" fold="1" page="1" pageScale="1" pageWidth="2339" pageHeight="3300" math="0" shadow="0">
      <root>
        <mxCell id="0" />
        <mxCell id="1" parent="0" />
        <mxCell id="UQhcGk4hunY0I68ApNxW-1" value="" style="rounded=0;whiteSpace=wrap;html=1;fillColor=#99FF99;" vertex="1" parent="1">
          <mxGeometry x="400" y="440" width="800" height="760" as="geometry" />
        </mxCell>
        <mxCell id="UQhcGk4hunY0I68ApNxW-2" value="" style="rounded=0;whiteSpace=wrap;html=1;fillColor=#99FFFF;" vertex="1" parent="1">
          <mxGeometry x="530" y="450" width="630" height="90" as="geometry" />
        </mxCell>
        <mxCell id="UQhcGk4hunY0I68ApNxW-4" value="" style="verticalLabelPosition=bottom;verticalAlign=top;html=1;shape=card;whiteSpace=wrap;size=20;arcSize=12;fillColor=#99FFFF;" vertex="1" parent="1">
          <mxGeometry x="410" y="450" width="100" height="90" as="geometry" />
        </mxCell>
        <mxCell id="UQhcGk4hunY0I68ApNxW-6" value="展示层" style="text;html=1;strokeColor=none;fillColor=#99FFFF;align=center;verticalAlign=middle;whiteSpace=wrap;rounded=0;" vertex="1" parent="1">
          <mxGeometry x="430" y="470" width="60" height="50" as="geometry" />
        </mxCell>
        <mxCell id="UQhcGk4hunY0I68ApNxW-7" value="WEBUI" style="text;html=1;strokeColor=none;fillColor=none;align=center;verticalAlign=middle;whiteSpace=wrap;rounded=0;" vertex="1" parent="1">
          <mxGeometry x="530" y="450" width="60" height="30" as="geometry" />
        </mxCell>
        <mxCell id="UQhcGk4hunY0I68ApNxW-8" value="" style="verticalLabelPosition=bottom;verticalAlign=top;html=1;shape=card;whiteSpace=wrap;size=20;arcSize=12;fillColor=#99CCFF;" vertex="1" parent="1">
          <mxGeometry x="410" y="600" width="100" height="90" as="geometry" />
        </mxCell>
        <mxCell id="UQhcGk4hunY0I68ApNxW-9" value="" style="rounded=0;whiteSpace=wrap;html=1;fillColor=#99CCFF;" vertex="1" parent="1">
          <mxGeometry x="530" y="600" width="630" height="90" as="geometry" />
        </mxCell>
        <mxCell id="UQhcGk4hunY0I68ApNxW-10" value="WEB SERVER" style="text;html=1;strokeColor=none;fillColor=none;align=center;verticalAlign=middle;whiteSpace=wrap;rounded=0;" vertex="1" parent="1">
          <mxGeometry x="530" y="600" width="100" height="30" as="geometry" />
        </mxCell>
        <mxCell id="UQhcGk4hunY0I68ApNxW-11" value="" style="verticalLabelPosition=bottom;verticalAlign=top;html=1;shape=card;whiteSpace=wrap;size=20;arcSize=12;fillColor=#FFCC99;" vertex="1" parent="1">
          <mxGeometry x="410" y="740" width="100" height="440" as="geometry" />
        </mxCell>
        <mxCell id="UQhcGk4hunY0I68ApNxW-12" value="" style="rounded=0;whiteSpace=wrap;html=1;fillColor=#FFCC99;" vertex="1" parent="1">
          <mxGeometry x="530" y="740" width="630" height="440" as="geometry" />
        </mxCell>
        <mxCell id="UQhcGk4hunY0I68ApNxW-13" value="FWA&amp;nbsp; SERVICE" style="text;html=1;strokeColor=none;fillColor=none;align=center;verticalAlign=middle;whiteSpace=wrap;rounded=0;" vertex="1" parent="1">
          <mxGeometry x="530" y="740" width="100" height="30" as="geometry" />
        </mxCell>
        <mxCell id="UQhcGk4hunY0I68ApNxW-14" value="通讯层" style="text;html=1;strokeColor=none;fillColor=none;align=center;verticalAlign=middle;whiteSpace=wrap;rounded=0;" vertex="1" parent="1">
          <mxGeometry x="430" y="630" width="60" height="30" as="geometry" />
        </mxCell>
        <mxCell id="UQhcGk4hunY0I68ApNxW-15" value="服务层" style="text;html=1;strokeColor=none;fillColor=none;align=center;verticalAlign=middle;whiteSpace=wrap;rounded=0;" vertex="1" parent="1">
          <mxGeometry x="430" y="850" width="60" height="30" as="geometry" />
        </mxCell>
        <mxCell id="UQhcGk4hunY0I68ApNxW-16" value="HTTP/HTTPS" style="rounded=1;whiteSpace=wrap;html=1;" vertex="1" parent="1">
          <mxGeometry x="640" y="615" width="120" height="60" as="geometry" />
        </mxCell>
        <mxCell id="UQhcGk4hunY0I68ApNxW-17" value="SSL支持" style="rounded=1;whiteSpace=wrap;html=1;" vertex="1" parent="1">
          <mxGeometry x="810" y="615" width="120" height="60" as="geometry" />
        </mxCell>
        <mxCell id="UQhcGk4hunY0I68ApNxW-18" value="访问控制" style="rounded=1;whiteSpace=wrap;html=1;fillColor=#FFFFCC;" vertex="1" parent="1">
          <mxGeometry x="980" y="615" width="120" height="60" as="geometry" />
        </mxCell>
        <mxCell id="UQhcGk4hunY0I68ApNxW-19" value="管理升级包" style="rounded=1;whiteSpace=wrap;html=1;fillColor=#FFFFCC;" vertex="1" parent="1">
          <mxGeometry x="590" y="467" width="80" height="60" as="geometry" />
        </mxCell>
        <mxCell id="UQhcGk4hunY0I68ApNxW-20" value="显示升级进度" style="rounded=1;whiteSpace=wrap;html=1;fillColor=#FFFFCC;" vertex="1" parent="1">
          <mxGeometry x="702" y="467" width="80" height="60" as="geometry" />
        </mxCell>
        <mxCell id="UQhcGk4hunY0I68ApNxW-21" value="执行升级操作" style="rounded=1;whiteSpace=wrap;html=1;fillColor=#FFFFCC;" vertex="1" parent="1">
          <mxGeometry x="810" y="467" width="80" height="60" as="geometry" />
        </mxCell>
        <mxCell id="UQhcGk4hunY0I68ApNxW-22" value="显示设备信息" style="rounded=1;whiteSpace=wrap;html=1;fillColor=#FFFFCC;" vertex="1" parent="1">
          <mxGeometry x="920" y="467" width="80" height="60" as="geometry" />
        </mxCell>
        <mxCell id="UQhcGk4hunY0I68ApNxW-24" value="显示升级结果" style="rounded=1;whiteSpace=wrap;html=1;fillColor=#FFFFCC;" vertex="1" parent="1">
          <mxGeometry x="1031" y="468" width="80" height="60" as="geometry" />
        </mxCell>
        <mxCell id="UQhcGk4hunY0I68ApNxW-25" value="" style="rounded=0;whiteSpace=wrap;html=1;dashed=1;fillColor=#CCE5FF;" vertex="1" parent="1">
          <mxGeometry x="550" y="780" width="270" height="390" as="geometry" />
        </mxCell>
        <mxCell id="UQhcGk4hunY0I68ApNxW-26" value="" style="rounded=0;whiteSpace=wrap;html=1;dashed=1;fillColor=#CCE5FF;" vertex="1" parent="1">
          <mxGeometry x="850" y="780" width="290" height="390" as="geometry" />
        </mxCell>
        <mxCell id="UQhcGk4hunY0I68ApNxW-31" value="下载" style="text;html=1;strokeColor=none;fillColor=none;align=center;verticalAlign=middle;whiteSpace=wrap;rounded=0;" vertex="1" parent="1">
          <mxGeometry x="552" y="781" width="60" height="30" as="geometry" />
        </mxCell>
        <mxCell id="UQhcGk4hunY0I68ApNxW-32" value="安装" style="text;html=1;strokeColor=none;fillColor=none;align=center;verticalAlign=middle;whiteSpace=wrap;rounded=0;" vertex="1" parent="1">
          <mxGeometry x="850" y="780" width="60" height="30" as="geometry" />
        </mxCell>
        <mxCell id="UQhcGk4hunY0I68ApNxW-35" value="" style="rounded=0;whiteSpace=wrap;html=1;dashed=1;" vertex="1" parent="1">
          <mxGeometry x="560" y="1080" width="250" height="70" as="geometry" />
        </mxCell>
        <mxCell id="UQhcGk4hunY0I68ApNxW-36" value="" style="rounded=0;whiteSpace=wrap;html=1;dashed=1;" vertex="1" parent="1">
          <mxGeometry x="560" y="810" width="250" height="240" as="geometry" />
        </mxCell>
        <mxCell id="UQhcGk4hunY0I68ApNxW-37" value="libc" style="ellipse;whiteSpace=wrap;html=1;fillColor=#FF9999;" vertex="1" parent="1">
          <mxGeometry x="570" y="1095" width="60" height="40" as="geometry" />
        </mxCell>
        <mxCell id="UQhcGk4hunY0I68ApNxW-38" value="libcurl" style="ellipse;whiteSpace=wrap;html=1;fillColor=#FF9999;" vertex="1" parent="1">
          <mxGeometry x="655" y="1095" width="60" height="40" as="geometry" />
        </mxCell>
        <mxCell id="UQhcGk4hunY0I68ApNxW-39" value="other" style="ellipse;whiteSpace=wrap;html=1;fillColor=#FF9999;" vertex="1" parent="1">
          <mxGeometry x="730" y="1095" width="60" height="40" as="geometry" />
        </mxCell>
        <mxCell id="UQhcGk4hunY0I68ApNxW-40" value="参数配置与获取" style="rounded=1;whiteSpace=wrap;html=1;fillColor=#FFFFCC;" vertex="1" parent="1">
          <mxGeometry x="571" y="820" width="109" height="40" as="geometry" />
        </mxCell>
        <mxCell id="UQhcGk4hunY0I68ApNxW-41" value="版本检测" style="rounded=1;whiteSpace=wrap;html=1;fillColor=#FFFFCC;" vertex="1" parent="1">
          <mxGeometry x="690" y="820" width="112" height="40" as="geometry" />
        </mxCell>
        <mxCell id="UQhcGk4hunY0I68ApNxW-42" value="下载协议集成&lt;br&gt;（http/https/ftp/ftps）" style="rounded=1;whiteSpace=wrap;html=1;fillColor=#FFFFCC;" vertex="1" parent="1">
          <mxGeometry x="572" y="870" width="108" height="40" as="geometry" />
        </mxCell>
        <mxCell id="UQhcGk4hunY0I68ApNxW-43" value="升级包校验" style="rounded=1;whiteSpace=wrap;html=1;fillColor=#FFFFCC;" vertex="1" parent="1">
          <mxGeometry x="690" y="870" width="110" height="40" as="geometry" />
        </mxCell>
        <mxCell id="UQhcGk4hunY0I68ApNxW-46" value="下载启动和停止" style="rounded=1;whiteSpace=wrap;html=1;fillColor=#FFFFCC;" vertex="1" parent="1">
          <mxGeometry x="572" y="920" width="108" height="40" as="geometry" />
        </mxCell>
        <mxCell id="UQhcGk4hunY0I68ApNxW-47" value="断点续传" style="rounded=1;whiteSpace=wrap;html=1;fillColor=#FFFFCC;" vertex="1" parent="1">
          <mxGeometry x="690" y="920" width="108" height="40" as="geometry" />
        </mxCell>
        <mxCell id="UQhcGk4hunY0I68ApNxW-48" value="下载进度查询" style="rounded=1;whiteSpace=wrap;html=1;fillColor=#FFFFCC;" vertex="1" parent="1">
          <mxGeometry x="571" y="970" width="108" height="40" as="geometry" />
        </mxCell>
        <mxCell id="UQhcGk4hunY0I68ApNxW-49" value="下载结果查询" style="rounded=1;whiteSpace=wrap;html=1;fillColor=#FFFFCC;" vertex="1" parent="1">
          <mxGeometry x="688" y="970" width="108" height="40" as="geometry" />
        </mxCell>
        <mxCell id="UQhcGk4hunY0I68ApNxW-50" value="下载日志管理" style="rounded=1;whiteSpace=wrap;html=1;fillColor=#FFFFCC;" vertex="1" parent="1">
          <mxGeometry x="570" y="1020" width="230" height="20" as="geometry" />
        </mxCell>
        <mxCell id="UQhcGk4hunY0I68ApNxW-56" value="" style="rounded=0;whiteSpace=wrap;html=1;dashed=1;" vertex="1" parent="1">
          <mxGeometry x="860" y="1080" width="270" height="70" as="geometry" />
        </mxCell>
        <mxCell id="UQhcGk4hunY0I68ApNxW-57" value="libc" style="ellipse;whiteSpace=wrap;html=1;fillColor=#FF9999;" vertex="1" parent="1">
          <mxGeometry x="880" y="1093" width="60" height="40" as="geometry" />
        </mxCell>
        <mxCell id="UQhcGk4hunY0I68ApNxW-58" value="unzip" style="ellipse;whiteSpace=wrap;html=1;fillColor=#FF9999;" vertex="1" parent="1">
          <mxGeometry x="965" y="1094" width="60" height="40" as="geometry" />
        </mxCell>
        <mxCell id="UQhcGk4hunY0I68ApNxW-60" value="other" style="ellipse;whiteSpace=wrap;html=1;fillColor=#FF9999;" vertex="1" parent="1">
          <mxGeometry x="1051" y="1096" width="60" height="40" as="geometry" />
        </mxCell>
        <mxCell id="UQhcGk4hunY0I68ApNxW-61" value="HTTP/HTTPS" style="rounded=1;whiteSpace=wrap;html=1;fillColor=#FFFFCC;" vertex="1" parent="1">
          <mxGeometry x="640" y="615" width="120" height="60" as="geometry" />
        </mxCell>
        <mxCell id="UQhcGk4hunY0I68ApNxW-62" value="SSL支持" style="rounded=1;whiteSpace=wrap;html=1;fillColor=#FFFFCC;" vertex="1" parent="1">
          <mxGeometry x="810" y="615" width="120" height="60" as="geometry" />
        </mxCell>
        <mxCell id="UQhcGk4hunY0I68ApNxW-64" value="" style="rounded=0;whiteSpace=wrap;html=1;dashed=1;" vertex="1" parent="1">
          <mxGeometry x="860" y="810" width="270" height="239" as="geometry" />
        </mxCell>
        <mxCell id="UQhcGk4hunY0I68ApNxW-52" value="文件有效性校验" style="rounded=1;whiteSpace=wrap;html=1;fillColor=#FFFFCC;" vertex="1" parent="1">
          <mxGeometry x="868" y="830" width="253" height="41" as="geometry" />
        </mxCell>
        <mxCell id="UQhcGk4hunY0I68ApNxW-53" value="升级进度管理" style="rounded=1;whiteSpace=wrap;html=1;fillColor=#FFFFCC;" vertex="1" parent="1">
          <mxGeometry x="868" y="890" width="252" height="40" as="geometry" />
        </mxCell>
        <mxCell id="UQhcGk4hunY0I68ApNxW-54" value="异常掉电管理" style="rounded=1;whiteSpace=wrap;html=1;fillColor=#FFFFCC;" vertex="1" parent="1">
          <mxGeometry x="868" y="944" width="252" height="44" as="geometry" />
        </mxCell>
        <mxCell id="UQhcGk4hunY0I68ApNxW-55" value="升级日志管理" style="rounded=1;whiteSpace=wrap;html=1;fillColor=#FFFFCC;" vertex="1" parent="1">
          <mxGeometry x="869" y="1001" width="250" height="40" as="geometry" />
        </mxCell>
      </root>
    </mxGraphModel>
  </diagram>
</mxfile>
